# AST/ASF file generated using VICON BodyLanguage
# -----------------------------------------------
:version 1.10
:name VICON
:units
  mass 1.0
  length 0.45
  angle deg
:documentation
   .ast/.asf automatically generated from VICON data using
   VICON BodyBuilder and BodyLanguage model FoxedUp or BRILLIANT.MOD
:root
   order TX TY TZ RX RY RZ
   axis XYZ
   position 0 0 0  
   orientation 0 0 0 
:bonedata
  begin
     id 1 
     name lhipjoint
     direction 0.702568 -0.596508 0.388042 
     length 2.56661 
     axis 0 0 0  XYZ
  end
  begin
     id 2 
     name lfemur
     direction 0.34202 -0.939693 0  
     length 6.58374  
     axis 0 0 20  XYZ
    dof rx ry rz
    limits (-160.0 20.0)
           (-70.0 70.0)
           (-60.0 70.0)
  end
  begin
     id 3 
     name ltibia
     direction 0.34202 -0.939693 0   
     length 6.62538   
     axis 0 0 20   XYZ
    dof rx
    limits (-10.0 170.0)
  end
  begin
     id 4 
     name lfoot
     direction 0.10455 -0.287249 0.952133   
     length 2.26699   
     axis -90 7.62852e-016 20   XYZ
    dof rx rz
    limits (-45.0 90.0)
           (-70.0 20.0)
  end
  begin
     id 5 
     name ltoes
     direction 1.53572e-011 -4.22322e-011 1   
     length 1.12949   
     axis -90 7.62852e-016 20   XYZ
    dof rx
    limits (-90.0 20.0)
  end
  begin
     id 6 
     name rhipjoint
     direction -0.728055 -0.574632 0.373811   
     length 2.66432  
     axis 0 0 0  XYZ 
  end
  begin
     id 7 
     name rfemur
     direction -0.34202 -0.939693 0   
     length 6.66732   
     axis 0 0 -20   XYZ
    dof rx ry rz
    limits (-160.0 20.0)
           (-70.0 70.0)
           (-70.0 60.0)
  end
  begin
     id 8 
     name rtibia
     direction -0.34202 -0.939693 0   
     length 6.59288   
     axis 0 0 -20   XYZ
    dof rx
    limits (-10.0 170.0)
 end
 begin
     id 9 
     name rfoot
     direction -0.119193 -0.327479 0.93731   
     length 2.38061  
     axis -90 -7.62852e-016 -20   XYZ
    dof rx rz
    limits (-45.0 90.0)
           (-20.0 70.0)
  end
  begin
     id 10 
     name rtoes
     direction -1.53547e-011 -4.21827e-011 1   
     length 1.17899   
     axis -90 -7.62852e-016 -20   XYZ
    dof rx
    limits (-90.0 20.0)
  end
  begin
     id 11 
     name lowerback
     direction -0.000416114 0.999912 -0.0132284   
     length 2.12109   
     axis 0 0 0   XYZ
    dof rx ry rz
    limits (-20.0 45.0)
           (-30.0 30.0)
           (-30.0 30.0)
  end
  begin
     id 12 
     name upperback
     direction -0.00136371 0.99809 0.0617608   
     length 2.10067   
     axis 0 0 0   XYZ
    dof rx ry rz
    limits (-20.0 45.0)
           (-30.0 30.0)
           (-30.0 30.0)
  end
  begin
     id 13 
     name thorax
     direction -3.43026e-005 0.997776 0.0666515   
     length 2.10618   
     axis 0 0 0   XYZ
    dof rx ry rz
    limits (-20.0 45.0)
           (-30.0 30.0)
           (-30.0 30.0)
  end
  begin
     id 14 
     name lowerneck
     direction 0.0398646 0.998418 0.0396592   
     length 1.83817   
     axis 0 0 0   XYZ
    dof rx ry rz
    limits (-20.0 45.0)
           (-30.0 30.0)
           (-30.0 30.0)
  end
  begin
     id 15 
     name upperneck
     direction -0.0367268 0.961527 -0.272244   
     length 1.81975   
     axis 0 0 0   XYZ
    dof rx ry rz
    limits (-20.0 45.0)
           (-30.0 30.0)
           (-30.0 30.0)
  end
  begin
     id 16
     name head
     direction -0.0182665 0.99536 -0.0944669  
     length 1.86026  
     axis 0 0 0   XYZ
    dof rx ry rz
    limits (-20.0 45.0)
           (-30.0 30.0)
           (-30.0 30.0)
  end
  begin
     id 17 
     name lclavicle
     direction 0.924239 0.361045 0.124212  
     length 3.26878  
     axis 0 0 0   XYZ
    dof ry rz
    limits (-20.0 10.0)
           (0.0 20.0)
  end
  begin
     id 18 
     name lhumerus
     direction 1 -4.48968e-011 -2.56583e-027   
     length 4.58538   
     axis 180 -30 -90   XYZ
    dof rx ry rz
    limits (-60.0 90.0)
           (-90.0 90.0)
           (-90.0 90.0)
  end
  begin
     id 19
     name lradius
     direction 1 -4.4898e-011 -5.50375e-027   
     length 2.68935   
     axis 180 -30 -90   XYZ
    dof rx
    limits (-10.0 170.0)
  end
  begin
     id 20
     name lwrist
     direction 1 -4.48939e-011 -1.48955e-026   
     length 1.34468   
     axis 9.0955e-015 90 90   XYZ
    dof ry
    limits (-180.0 0.0)
 end
  begin
     id 21 
     name lhand
     direction 1 -4.48936e-011 -2.97907e-026   
     length 0.585058   
     axis 1.90115e-014 90 90   XYZ
    dof rx rz
    limits (-90.0 90.0)
           (-45.0 45.0)
  end
  begin
     id 22 
     name lfingers
     direction 1 -4.49082e-011 -5.96235e-026   
     length 0.471689   
     axis 3.80223e-014 90 90   XYZ
    dof rx
    limits (0.0 90.0)
  end
  begin
     id 23
     name lthumb
     direction 0.707107 -6.3489e-011 0.707107   
     length 0.677253   
     axis -90 45 -3.84942e-014   XYZ
    dof rx rz
    limits (-45.0 45.0)
           (-45.0 45.0)
  end
  begin
     id 24 
     name rclavicle
     direction -0.923098 0.371783 0.0983239   
     length 3.19656  
     axis 0 0 0   XYZ 
    dof ry rz
    limits (-10.0 20.0)
           (-20.0 0.0)
  end
  begin
     id 25 
     name rhumerus
     direction -1 -4.48976e-011 -2.5492e-027  
     length 4.4745   
     axis 180 30 90   XYZ
    dof rx ry rz
    limits (-90.0 60.0)
           (-90.0 90.0)
           (-90.0 90.0)
  end
  begin
     id 26 
     name rradius
     direction -1 -4.48941e-011 -4.36555e-027   
     length 2.93896   
     axis 180 30 90   XYZ
    dof rx
    limits (-10.0 170.0)
  end
  begin
     id 27 
     name rwrist
     direction -1 -4.49044e-011 -1.49032e-026   
     length 1.46948   
     axis 9.0955e-015 -90 -90   XYZ
    dof ry
    limits (-180.0 0.0)
  end
  begin
     id 28
     name rhand
     direction -1 -4.48826e-011 -2.97749e-026   
     length 0.405092   
     axis 1.90115e-014 -90 -90   XYZ
    dof rx rz
    limits (-90.0 90.0)
           (-45.0 45.0)
  end
  begin
     id 29
     name rfingers
     direction -1 -4.49209e-011 -5.96602e-026   
     length 0.326596   
     axis 3.80223e-014 -90 -90   XYZ
    dof rx
    limits (0.0 90.0)
  end
  begin
     id 30
     name rthumb
     direction -0.707107 -6.34776e-011 0.707107   
     length 0.468928   
     axis -90 -45 3.84942e-014   XYZ
    dof rx rz
    limits (-45.0 45.0)
           (-45.0 45.0)
  end
:hierarchy
  begin
    root lhipjoint rhipjoint lowerback
    lhipjoint lfemur
    lfemur ltibia
    ltibia lfoot
    lfoot ltoes
    rhipjoint rfemur
    rfemur rtibia
    rtibia rfoot
    rfoot rtoes
    lowerback upperback
    upperback thorax
    thorax lowerneck lclavicle rclavicle
    lowerneck upperneck
    upperneck head
    lclavicle lhumerus
    lhumerus lradius
    lradius lwrist
    lwrist lhand lthumb
    lhand lfingers
    rclavicle rhumerus
    rhumerus rradius
    rradius rwrist
    rwrist rhand rthumb
    rhand rfingers
  end

#!OML:ASF H:\Punching\Project 1\Capture day 1\Session 1\female.ASF
:FULLY-SPECIFIED
:DEGREES
846
root -0.0910475 13.7346 -0.234816 10.8845 -5.34954 3.56824
lowerback -7.18491 -6.87787 -2.59935
upperback -11.2758 -9.03502 3.78446
thorax -6.88125 -4.2064 5.25541
lowerneck -6.9887 10.7183 14.7007
upperneck 34.4701 18.8584 -16.2086
head 16.9003 8.20216 -6.36052
rclavicle 4.33351e-014 -1.27222e-014
rhumerus 0.52024 16.5086 -43.9196
rradius 121.235
rwrist -21.6272
rhand -28.6507 5.95678
rfingers 7.12502
rthumb -2.01432 -24.0135
lclavicle 4.33351e-014 -1.27222e-014
lhumerus -12.5776 -16.9432 78.3348
lradius 134.732
lwrist -1.77702
lhand -28.6036 -4.52914
lfingers 7.12502
lthumb -1.96891 25.4415
rfemur -57.7592 -1.24614 21.0549
rtibia 71.4806
rfoot -20.9547 -16.5235
rtoes 7.2316
lfemur 10.9932 -2.72526 -19.4896
ltibia 39.9438
lfoot -13.5858 31.8782
ltoes -6.00557
847
root -0.147487 13.7851 -0.133009 10.2355 -6.12236 3.04292
lowerback -6.98282 -6.72201 -1.74931
upperback -11.1424 -8.84913 3.73811
thorax -6.99331 -4.17426 4.7755
lowerneck -6.60015 10.8839 14.7786
upperneck 34.7075 19.2821 -16.4246
head 17.0973 8.38383 -6.42582
rclavicle 5.96354e-015 -2.54444e-014
rhumerus 1.19171 17.2114 -43.992
rradius 119.766
rwrist -21.0577
rhand -28.5313 6.12404
rfingers 7.12502
rthumb -1.89908 -23.8473
lclavicle 5.96354e-015 -2.54444e-014
lhumerus -14.0415 -16.0931 77.8097
lradius 134.67
lwrist -1.60375
lhand -28.6942 -4.34869
lfingers 7.12502
lthumb -2.05637 25.6211
rfemur -55.9987 -0.235049 21.7274
rtibia 70.6082
rfoot -21.0729 -16.8197
rtoes 7.24192
lfemur 9.16783 -1.52834 -18.494
ltibia 44.3564
lfoot -9.25757 29.8576
ltoes -4.29905
848
root -0.200101 13.839 -0.0372912 9.62867 -6.93149 2.45915
lowerback -6.76813 -6.51716 -0.782011
upperback -10.9908 -8.59744 3.67143
thorax -7.11504 -4.11833 4.21248
lowerneck -6.21238 11.0232 14.8448
upperneck 34.9315 19.6574 -16.6219
head 17.2744 8.54601 -6.4909
rclavicle 2.62396e-014 -2.38542e-014
rhumerus 1.91612 17.8797 -44.1694
rradius 118.266
rwrist -20.4384
rhand -28.3927 6.19021
rfingers 7.12502
rthumb -1.76522 -23.7822
lclavicle 2.62396e-014 -2.38542e-014
lhumerus -15.4168 -15.2509 77.1962
lradius 134.591
lwrist -1.49324
lhand -28.798 -4.22525
lfingers 7.12502
lthumb -2.15659 25.7436
rfemur -54.227 0.792322 22.4689
rtibia 69.6068
rfoot -21.0914 -17.0899
rtoes 7.27185
lfemur 7.1166 -0.35038 -17.4689
ltibia 48.9277
lfoot -5.65876 27.1064
ltoes -3.75247
849
root -0.24913 13.8961 0.0524845 9.07053 -7.76357 1.87752
lowerback -6.55833 -6.2752 0.238616
upperback -10.8204 -8.29506 3.56959
thorax -7.22456 -4.04279 3.58074
lowerneck -5.83986 11.1352 14.8905
upperneck 35.1428 19.9769 -16.7883
head 17.4285 8.68467 -6.54914
rclavicle -3.69739e-014 -9.54166e-015
rhumerus 2.67441 18.5051 -44.4622
rradius 116.756
rwrist -19.7945
rhand -28.2998 6.21843
rfingers 7.12502
rthumb -1.67547 -23.7547
lclavicle -3.69739e-014 -9.54166e-015
lhumerus -16.6785 -14.4337 76.492
lradius 134.507
lwrist -1.42189
lhand -28.9158 -4.1414
lfingers 7.12502
lthumb -2.27041 25.8263
rfemur -52.4763 1.79016 23.2158
rtibia 68.5076
rfoot -21.0293 -17.3044
rtoes 7.32377
lfemur 4.83976 0.786822 -16.4862
ltibia 53.5915
lfoot -2.91875 23.8644
ltoes -4.13368
850
root -0.294844 13.9563 0.136371 8.55233 -8.59867 1.36855
lowerback -6.35903 -6.01003 1.23526
upperback -10.6267 -7.96084 3.41604
thorax -7.30103 -3.95221 2.90181
lowerneck -5.50025 11.2247 14.9175
upperneck 35.3337 20.2427 -16.9215
head 17.5581 8.80006 -6.59726
rclavicle -1.98785e-015 2.38542e-014
rhumerus 3.45154 19.0743 -44.8775
rradius 115.251
rwrist -19.1461
rhand -28.3504 6.29546
rfingers 7.12502
rthumb -1.72438 -23.6773
lclavicle -1.98785e-015 2.38542e-014
lhumerus -17.8089 -13.6736 75.7138
lradius 134.427
lwrist -1.40443
lhand -29.122 -4.02309
lfingers 7.12502
lthumb -2.46952 25.9424
rfemur -50.7723 2.70573 23.8946
rtibia 67.353
rfoot -20.9104 -17.4364
rtoes 7.40164
lfemur 2.34002 1.86712 -15.6264
ltibia 58.2827
lfoot -0.991201 20.3859
ltoes -5.15564
851
root -0.337462 14.0194 0.214514 8.05387 -9.41494 0.995968
lowerback -6.17928 -5.73864 2.13598
upperback -10.4031 -7.61839 3.20104
thorax -7.32018 -3.8532 2.20177
lowerneck -5.21891 11.3013 14.9043
upperneck 35.5184 20.4666 -17.0038
head 17.6726 8.89377 -6.61945
rclavicle 4.92986e-014 4.77083e-015
rhumerus 4.25012 19.5824 -45.4053
rradius 113.782
rwrist -18.5493
rhand -28.5514 6.4351
rfingers 7.12502
rthumb -1.91848 -23.536
lclavicle 4.92986e-014 4.77083e-015
lhumerus -18.8314 -13.0504 74.9048
lradius 134.443
lwrist -1.5353
lhand -29.4246 -3.29539
lfingers 7.12502
lthumb -2.76173 26.6665
rfemur -49.1304 3.49466 24.4369
rtibia 66.1892
rfoot -20.7676 -17.4681
rtoes 7.51299
lfemur -0.375664 2.88524 -14.9609
ltibia 62.9491
lfoot 0.316967 16.9443
ltoes -6.69126
852
root -0.377196 14.085 0.286803 7.54946 -10.1886 0.808729
lowerback -6.00524 -5.46459 2.89008
upperback -10.1525 -7.27333 2.90842
thorax -7.28754 -3.74459 1.49338
lowerneck -4.99714 11.3609 14.8568
upperneck 35.6983 20.6401 -17.033
head 17.7699 8.963 -6.61723
rclavicle -8.22969e-014 -1.27222e-014
rhumerus 5.02988 20.0151 -46.035
rradius 112.375
rwrist -18.0364
rhand -28.839 6.63044
rfingers 7.12502
rthumb -2.19626 -23.338
lclavicle -8.22969e-014 -1.27222e-014
lhumerus -19.7286 -12.5634 74.0872
lradius 134.545
lwrist -1.73492
lhand -29.763 -2.08875
lfingers 7.12502
lthumb -3.08861 27.8686
rfemur -47.5547 4.12528 24.7894
rtibia 65.0402
rfoot -20.6161 -17.3931
rtoes 7.64631
lfemur -3.29188 3.83161 -14.5501
ltibia 67.5369
lfoot 1.14575 13.7074
ltoes -8.48826
